<?xml version="1.0" encoding="UTF-8"?>
<svg id="layers" xmlns="http://www.w3.org/2000/svg" viewBox="0 0 400 400">
  <path d="M309.39,221.67l36.101,17.144c3.807,1.808,3.807,7.225,0,9.033l-133.477,63.406c-7.602,3.611-16.426,3.611-24.029,0l-133.477-63.406c-3.806-1.808-3.806-7.225,0-9.033l36.101-17.144" fill="none" stroke="#191919" stroke-linecap="round" stroke-linejoin="round" stroke-width="12"/>
  <path d="M309.39,178.34l36.101,17.144c3.807,1.808,3.807,7.225,0,9.033l-133.477,63.406c-7.602,3.611-16.426,3.611-24.029,0l-133.477-63.406c-3.806-1.808-3.806-7.225,0-9.033l36.101-17.144" fill="none" stroke="#191919" stroke-linecap="round" stroke-linejoin="round" stroke-width="12"/>
  <path d="M345.493,161.186l-133.478,63.409c-7.603,3.612-16.427,3.612-24.029,0l-133.478-63.409c-3.806-1.808-3.806-7.225,0-9.033l133.478-63.409c7.603-3.612,16.427-3.612,24.029,0l133.478,63.409c3.806,1.808,3.806,7.225,0,9.033Z" fill="none" stroke="#4f46e5" stroke-linecap="round" stroke-linejoin="round" stroke-width="12"/>
</svg>